<svg width="18" height="17" viewBox="0 0 18 17" fill="none" xmlns="http://www.w3.org/2000/svg">
<path d="M16.275 16.3128C17.0441 16.3128 17.67 15.735 17.67 15.0249V12.0199C17.67 11.3099 17.0441 10.7321 16.275 10.7321C15.1869 10.7321 14.1174 10.5741 13.0944 10.2625C12.8499 10.1912 12.589 10.1825 12.3395 10.2374C12.0901 10.2923 11.8614 10.4087 11.678 10.5741L10.3388 11.8105C8.02414 10.6504 6.12315 8.89599 4.86576 6.7595L6.1938 5.52574C6.57696 5.19777 6.7146 4.69894 6.55092 4.219C6.21402 3.27312 6.04322 2.28356 6.045 1.28785C6.045 0.577816 5.41911 0 4.65 0H1.395C0.62589 0 0 0.577816 0 1.28785C0 9.57303 7.3005 16.3128 16.275 16.3128ZM1.395 0.858568H4.65C4.77333 0.858568 4.8916 0.903796 4.9788 0.984302C5.06601 1.06481 5.115 1.174 5.115 1.28785C5.115 2.38424 5.301 3.46089 5.66649 4.48172C5.69334 4.5558 5.69648 4.63546 5.67553 4.71114C5.65459 4.78683 5.61044 4.85533 5.54838 4.90843L3.7293 6.59638C5.25171 9.36783 7.50045 11.4438 10.5164 12.8613L12.329 11.1871C12.3909 11.1306 12.4682 11.0907 12.5527 11.0717C12.6372 11.0526 12.7258 11.0551 12.8089 11.079C13.9212 11.419 15.0874 11.5907 16.275 11.5907C16.5308 11.5907 16.74 11.7838 16.74 12.0199V15.0249C16.74 15.261 16.5308 15.4542 16.275 15.4542C7.81386 15.4542 0.93 9.0991 0.93 1.28785C0.93 1.174 0.978991 1.06481 1.0662 0.984302C1.1534 0.903796 1.27167 0.858568 1.395 0.858568Z" fill="black"/>
</svg>
