<svg width="25" height="25" viewBox="0 0 25 25" fill="none" xmlns="http://www.w3.org/2000/svg">
<path d="M24.5706 5.91128C24.5605 5.39288 24.519 4.87556 24.4461 4.3622C24.3593 3.90557 24.2118 3.46262 24.0075 3.04512C23.5603 2.16219 22.8433 1.44477 21.9606 0.996992C21.5458 0.793645 21.1057 0.646542 20.652 0.559576C20.1347 0.485242 19.6133 0.44287 19.0908 0.432701C18.8697 0.424242 18.5833 0.420617 18.4504 0.420617L6.55072 0.416992C6.41781 0.416992 6.13143 0.420617 5.91031 0.429076C5.3919 0.439064 4.87458 0.480627 4.36122 0.553534C3.9046 0.64034 3.46164 0.787858 3.04414 0.992159C2.16126 1.43948 1.44386 2.15646 0.996016 3.03908C0.792722 3.45391 0.645621 3.894 0.558599 4.3477C0.483928 4.86497 0.441153 5.38634 0.430516 5.90887C0.423266 6.12999 0.418432 6.41637 0.418432 6.54928L0.416016 18.4489C0.416016 18.5819 0.419641 18.8682 0.428099 19.0894C0.438088 19.6078 0.479651 20.1251 0.552557 20.6385C0.639378 21.0951 0.786895 21.538 0.991182 21.9555C1.43851 22.8384 2.15549 23.5558 3.0381 24.0037C3.45295 24.2069 3.89303 24.354 4.34672 24.4411C4.86401 24.5154 5.38539 24.5578 5.90789 24.5679C6.12902 24.5764 6.41539 24.58 6.54831 24.58L18.448 24.5824C18.5809 24.5824 18.8673 24.5788 19.0884 24.5704C19.6068 24.5603 20.1241 24.5188 20.6375 24.4459C21.0941 24.359 21.537 24.2115 21.9546 24.0073C22.8379 23.5602 23.5557 22.8432 24.0039 21.9604C24.2072 21.5455 24.3543 21.1055 24.4413 20.6517C24.516 20.1345 24.5588 19.6131 24.5694 19.0906C24.5766 18.8694 24.5815 18.5831 24.5815 18.4502L24.5827 6.5517C24.5827 6.41878 24.5791 6.13241 24.5706 5.91128ZM12.7616 20.9067H12.7579C11.3196 20.9064 9.90427 20.5458 8.64114 19.8579L4.07364 21.0553L5.29647 16.5929C4.34969 14.95 3.97138 13.0406 4.22021 11.1607C4.46904 9.28091 5.3311 7.53568 6.67273 6.19564C8.01437 4.8556 9.76063 3.99562 11.6408 3.74903C13.5209 3.50243 15.4298 3.88301 17.0717 4.83175C18.7135 5.78049 19.9965 7.24439 20.7216 8.99647C21.4468 10.7486 21.5737 12.691 21.0826 14.5225C20.5915 16.354 19.5099 17.9724 18.0055 19.1267C16.501 20.2809 14.6578 20.9066 12.7616 20.9067Z" fill="#43FFD2"/>
<path d="M12.7652 5.13011C11.4857 5.12974 10.2294 5.47217 9.12707 6.12178C8.02472 6.77139 7.11653 7.70447 6.49695 8.82398C5.87737 9.94349 5.56903 11.2085 5.60399 12.4876C5.63895 13.7666 6.01594 15.013 6.69575 16.0969L6.86612 16.3676L6.14233 19.009L8.85262 18.2985L9.11362 18.4532C10.2169 19.1066 11.4757 19.4514 12.758 19.4513H12.7616C14.6608 19.4516 16.4824 18.6974 17.8257 17.3547C19.1689 16.0119 19.9237 14.1906 19.924 12.2913C19.9243 10.392 19.1701 8.57043 17.8274 7.22722C16.4846 5.88401 14.6633 5.12923 12.764 5.12891L12.7652 5.13011ZM16.975 15.3647C16.8167 15.6263 16.6058 15.8522 16.3559 16.0284C16.1059 16.2045 15.8222 16.327 15.5226 16.3882C15.0703 16.4657 14.6061 16.4368 14.1669 16.3036C13.7504 16.1738 13.341 16.0221 12.9404 15.8492C11.4538 15.1032 10.1867 13.9835 9.26345 12.6C8.75979 11.9596 8.45406 11.186 8.38379 10.3743C8.37798 10.0392 8.44203 9.70664 8.57185 9.3977C8.70166 9.08876 8.8944 8.81025 9.13779 8.57991C9.20971 8.49785 9.29783 8.43156 9.3966 8.38519C9.49538 8.33882 9.60267 8.31337 9.71175 8.31045C9.85433 8.31045 9.99812 8.31045 10.1238 8.3177C10.2567 8.32374 10.4331 8.26695 10.6071 8.68745C10.7884 9.11762 11.2185 10.1773 11.2717 10.2849C11.3058 10.3412 11.3254 10.4052 11.3285 10.4711C11.3317 10.5369 11.3184 10.6025 11.2898 10.6619C11.2356 10.7911 11.1632 10.912 11.0747 11.0207C10.966 11.1464 10.8488 11.3011 10.7521 11.3977C10.6434 11.5053 10.5322 11.6213 10.6567 11.8364C10.9799 12.3898 11.3835 12.8923 11.8541 13.3274C12.3648 13.7815 12.9508 14.1429 13.5857 14.3956C13.8007 14.5044 13.9264 14.485 14.0521 14.3412C14.1777 14.1974 14.5898 13.7129 14.7336 13.4978C14.8774 13.2827 15.02 13.319 15.2169 13.3903C15.4139 13.4616 16.4736 13.9824 16.6887 14.0911C16.9037 14.1999 17.0475 14.2518 17.1007 14.3412C17.1596 14.6873 17.1159 15.0431 16.975 15.3647Z" fill="#43FFD2"/>
</svg>
